HIERARCHY
ROOT Hips
{
  OFFSET 5.80788e-005 67.184 3.4734
  CHANNELS 6 Xposition Yposition Zposition Zrotation Xrotation Yrotation
  JOINT Chest
  {
    OFFSET 0 8.7983 -4.7612
    CHANNELS 3 Zrotation Xrotation Yrotation
    JOINT Chest2
    {
      OFFSET 0 8.0291 0.4195
      CHANNELS 3 Zrotation Xrotation Yrotation
      JOINT Chest3
      {
        OFFSET 0 9.9351 -2.2114
        CHANNELS 3 Zrotation Xrotation Yrotation
        JOINT Neck
        {
          OFFSET 0 22.3885 -0.4656
          CHANNELS 3 Zrotation Xrotation Yrotation
          JOINT Head
          {
            OFFSET -0.0001 12.643 3.4389
            CHANNELS 3 Zrotation Xrotation Yrotation
            End Site
            {
              OFFSET 0.0001 17.6655 0.5274
            }
          }
        }
        JOINT LeftCollar
        {
          OFFSET 2.2603 21.606 7.4023
          CHANNELS 3 Zrotation Xrotation Yrotation
          JOINT LeftShoulder
          {
            OFFSET 13.5163 -1.1332 -5.0146
            CHANNELS 3 Zrotation Xrotation Yrotation
            JOINT LeftElbow
            {
              OFFSET -0.0995 -28.05 -0.2431
              CHANNELS 3 Zrotation Xrotation Yrotation
              JOINT LeftWrist
              {
                OFFSET 0.0679 -23.3996 -0.1402
                CHANNELS 3 Zrotation Xrotation Yrotation
                JOINT LeftFinger1
                {
                  OFFSET 0.7932 -9.069 2.5189
                  CHANNELS 3 Zrotation Xrotation Yrotation
                  JOINT LeftFinger11
                  {
                    OFFSET -0.8272 -3.3923 0.5977
                    CHANNELS 3 Zrotation Xrotation Yrotation
                    JOINT LeftFinger12
                    {
                      OFFSET -0.5649 -2.3158 0.4082
                      CHANNELS 3 Zrotation Xrotation Yrotation
                      End Site
                      {
                        OFFSET -0.4919 -1.6479 0.2673
                      }
                    }
                  }
                }
                JOINT LeftFinger2
                {
                  OFFSET 0.9159 -9.2044 0.2193
                  CHANNELS 3 Zrotation Xrotation Yrotation
                  JOINT LeftFinger21
                  {
                    OFFSET 0.0117 -4.1944 -0.0248
                    CHANNELS 3 Zrotation Xrotation Yrotation
                    JOINT LeftFinger22
                    {
                      OFFSET 0.0071 -2.3249 -0.0142
                      CHANNELS 3 Zrotation Xrotation Yrotation
                      End Site
                      {
                        OFFSET -0.1475 -2.0882 0.0028
                      }
                    }
                  }
                }
                JOINT LeftFinger3
                {
                  OFFSET 0.6113 -8.7231 -2.0637
                  CHANNELS 3 Zrotation Xrotation Yrotation
                  JOINT LeftFinger31
                  {
                    OFFSET -0.1927 -3.8059 -0.2383
                    CHANNELS 3 Zrotation Xrotation Yrotation
                    JOINT LeftFinger32
                    {
                      OFFSET -0.1091 -2.1688 -0.1362
                      CHANNELS 3 Zrotation Xrotation Yrotation
                      End Site
                      {
                        OFFSET -0.2358 -1.9176 -0.0906
                      }
                    }
                  }
                }
                JOINT LeftFinger4
                {
                  OFFSET -0.6151 -8.0947 -3.5641
                  CHANNELS 3 Zrotation Xrotation Yrotation
                  JOINT LeftFinger41
                  {
                    OFFSET -0.4882 -2.341 -0.6462
                    CHANNELS 3 Zrotation Xrotation Yrotation
                    JOINT LeftFinger42
                    {
                      OFFSET -0.3575 -1.7167 -0.4742
                      CHANNELS 3 Zrotation Xrotation Yrotation
                      End Site
                      {
                        OFFSET -0.4187 -1.5237 -0.3496
                      }
                    }
                  }
                }
                JOINT LeftFinger0
                {
                  OFFSET -1.42 -1.8761 1.4223
                  CHANNELS 3 Zrotation Xrotation Yrotation
                  JOINT LeftFinger01
                  {
                    OFFSET -1.1471 -3.4929 2.6334
                    CHANNELS 3 Zrotation Xrotation Yrotation
                    JOINT LeftFinger02
                    {
                      OFFSET -0.823 -2.3 1.6571
                      CHANNELS 3 Zrotation Xrotation Yrotation
                      End Site
                      {
                        OFFSET -0.5822 -1.6914 1.1582
                      }
                    }
                  }
                }
              }
            }
          }
        }
        JOINT RightCollar
        {
          OFFSET -2.2603 21.606 7.4023
          CHANNELS 3 Zrotation Xrotation Yrotation
          JOINT RightShoulder
          {
            OFFSET -13.5187 -1.1334 -5.0155
            CHANNELS 3 Zrotation Xrotation Yrotation
            JOINT RightElbow
            {
              OFFSET 0.0994 -28.0499 -0.2431
              CHANNELS 3 Zrotation Xrotation Yrotation
              JOINT RightWrist
              {
                OFFSET -0.0679 -23.3996 -0.1402
                CHANNELS 3 Zrotation Xrotation Yrotation
                JOINT RightFinger1
                {
                  OFFSET -0.7932 -9.0691 2.5189
                  CHANNELS 3 Zrotation Xrotation Yrotation
                  JOINT RightFinger11
                  {
                    OFFSET 0.8272 -3.3923 0.5977
                    CHANNELS 3 Zrotation Xrotation Yrotation
                    JOINT RightFinger12
                    {
                      OFFSET 0.565 -2.3158 0.4082
                      CHANNELS 3 Zrotation Xrotation Yrotation
                      End Site
                      {
                        OFFSET 0.4919 -1.6479 0.2673
                      }
                    }
                  }
                }
                JOINT RightFinger2
                {
                  OFFSET -0.916 -9.2044 0.2193
                  CHANNELS 3 Zrotation Xrotation Yrotation
                  JOINT RightFinger21
                  {
                    OFFSET -0.0117 -4.1944 -0.0248
                    CHANNELS 3 Zrotation Xrotation Yrotation
                    JOINT RightFinger22
                    {
                      OFFSET -0.0071 -2.3249 -0.0142
                      CHANNELS 3 Zrotation Xrotation Yrotation
                      End Site
                      {
                        OFFSET 0.1475 -2.0882 0.0028
                      }
                    }
                  }
                }
                JOINT RightFinger3
                {
                  OFFSET -0.6113 -8.7231 -2.0637
                  CHANNELS 3 Zrotation Xrotation Yrotation
                  JOINT RightFinger31
                  {
                    OFFSET 0.1927 -3.8059 -0.2383
                    CHANNELS 3 Zrotation Xrotation Yrotation
                    JOINT RightFinger32
                    {
                      OFFSET 0.1091 -2.1688 -0.1362
                      CHANNELS 3 Zrotation Xrotation Yrotation
                      End Site
                      {
                        OFFSET 0.2358 -1.9176 -0.0906
                      }
                    }
                  }
                }
                JOINT RightFinger4
                {
                  OFFSET 0.6151 -8.0947 -3.564
                  CHANNELS 3 Zrotation Xrotation Yrotation
                  JOINT RightFinger41
                  {
                    OFFSET 0.4882 -2.341 -0.6462
                    CHANNELS 3 Zrotation Xrotation Yrotation
                    JOINT RightFinger42
                    {
                      OFFSET 0.3574 -1.7166 -0.4742
                      CHANNELS 3 Zrotation Xrotation Yrotation
                      End Site
                      {
                        OFFSET 0.4187 -1.5237 -0.3496
                      }
                    }
                  }
                }
                JOINT RightFinger0
                {
                  OFFSET 1.4199 -1.8761 1.4221
                  CHANNELS 3 Zrotation Xrotation Yrotation
                  JOINT RightFinger01
                  {
                    OFFSET 1.1472 -3.4929 2.6336
                    CHANNELS 3 Zrotation Xrotation Yrotation
                    JOINT RightFinger02
                    {
                      OFFSET 0.8229 -2.3 1.6571
                      CHANNELS 3 Zrotation Xrotation Yrotation
                      End Site
                      {
                        OFFSET 0.5822 -1.6914 1.1582
                      }
                    }
                  }
                }
              }
            }
          }
        }
      }
    }
  }
  JOINT RightHip
  {
    OFFSET -9.412 3.9771 -0.7758
    CHANNELS 3 Zrotation Xrotation Yrotation
    JOINT RightKnee
    {
      OFFSET -0.7531 -40.938 0
      CHANNELS 3 Zrotation Xrotation Yrotation
      JOINT RightAnkle
      {
        OFFSET 0 -40.1986 0
        CHANNELS 3 Zrotation Xrotation Yrotation
        JOINT RightToe
        {
          OFFSET 0 -4.4182 9.239
          CHANNELS 3 Zrotation Xrotation Yrotation
          End Site
          {
            OFFSET 0 0 6.1981
          }
        }
      }
    }
  }
  JOINT LeftHip
  {
    OFFSET 9.4119 3.9773 -0.7758
    CHANNELS 3 Zrotation Xrotation Yrotation
    JOINT LeftKnee
    {
      OFFSET 0.7532 -40.9383 0
      CHANNELS 3 Zrotation Xrotation Yrotation
      JOINT LeftAnkle
      {
        OFFSET 0 -40.1986 0
        CHANNELS 3 Zrotation Xrotation Yrotation
        JOINT LeftToe
        {
          OFFSET 0 -4.4182 9.239
          CHANNELS 3 Zrotation Xrotation Yrotation
          End Site
          {
            OFFSET 0 0 6.1981
          }
        }
      }
    }
  }
}
MOTION
Frames:	6
Frame Time:	0.0333333
5.80788e-005 67.184 3.4734 0 0 -0 0 0 -0 0 0 -0 0 0 -0 0 0 -0 0 0 -0 0 0 -12.5014 88.1196 14.2451 10.6914 -0.00160068 -0.00239207 0.000740045 -8.4365e-005 7.00714e-005 -9.52055e-007 9.93923e-017 -1.98785e-016 -1.59028e-015 9.93923e-017 -5.96354e-016 -1.59028e-015 -9.93923e-017 -5.96354e-016 -1.59028e-015 9.93923e-017 -1.98785e-016 -1.59028e-015 -0.0128176 0.00232552 8.52707e-005 9.93923e-017 5.96354e-016 -0 9.93923e-017 -1.98785e-016 -1.59028e-015 -0.0160551 0.00299681 0.000857156 -2.48481e-016 0 3.18055e-015 9.93923e-017 -1.98785e-016 -1.59028e-015 -0.0125865 0.0031206 0.00282719 0 1.98785e-016 -0 9.93923e-017 -1.98785e-016 -1.59028e-015 9.93923e-017 -5.96354e-016 -1.59028e-015 -9.93923e-017 -5.96354e-016 -1.59028e-015 -0.865644 0.16582 7.03859 -88.0329 10.2057 -10.5567 0.0015593 -0.00248883 -0.000788628 7.87605e-005 4.10553e-005 1.24965e-005 -3.97569e-016 -7.95139e-016 3.18055e-015 -1.98785e-016 -3.97569e-016 3.18055e-015 -1.98785e-016 0 3.18055e-015 -3.97569e-016 -7.95139e-016 3.18055e-015 0.0129473 0.00231697 -8.70038e-005 9.93923e-017 -7.95139e-016 1.59028e-015 -3.97569e-016 -7.95139e-016 3.18055e-015 0.0163314 0.00303369 -0.000872333 3.97569e-016 7.95139e-016 -3.18055e-015 -3.97569e-016 -7.95139e-016 3.18055e-015 0.0145763 0.00367772 -0.00326275 9.93923e-017 -3.97569e-016 -0 -3.97569e-016 -7.95139e-016 3.18055e-015 -1.98785e-016 -3.97569e-016 3.18055e-015 -1.98785e-016 0 3.18055e-015 3.42485 1.36937 -0.0640303 0.000136572 0.69354 0.00145564 -3.42573 -2.06297 -0.0607933 -3.19502e-024 0 -1.48106e-024 -3.42498 1.36123 0.0639712 -6.769e-005 0.712612 -0.0012277 3.42582 -2.07388 0.0612819 2.55305e-023 0 -2.31416e-026 
-20.651 22.532 4.7627 36.2124 29.1341 123.62 -0.472443 1.51481 0.0147127 -0.945748 3.02944 0.0419766 -0.945751 3.02943 0.0419745 -3.55717e-005 11.927 -8.00227e-006 1.8481e-006 8.2127 1.54622e-006 -9.3548 17.4339 -26.9413 45.2436 42.1822 29.1418 1.08726 -59.5793 7.93942 -12.5653 -1.58155 -0.374075 4.18238e-006 -4.81786e-006 2.16119e-006 -3.18055e-015 5.1684e-015 2.5842e-015 3.18055e-015 1.59028e-015 2.98177e-015 4.18238e-006 -4.81786e-006 2.16119e-006 -0.0128678 0.0023391 8.22311e-005 2.521e-006 1.39183e-006 -2.68387e-006 4.18238e-006 -4.81786e-006 2.16119e-006 -0.0160423 0.00300568 0.000861646 -6.36111e-015 -1.43125e-014 -5.96354e-016 4.18238e-006 -4.81786e-006 2.16119e-006 -0.0125867 0.0031161 0.00281593 3.20122e-006 1.5641e-006 4.92926e-006 4.18238e-006 -4.81786e-006 2.16119e-006 -3.18055e-015 5.1684e-015 2.5842e-015 3.18055e-015 1.59028e-015 2.98177e-015 8.43716 17.376 21.7485 -47.9153 39.5825 -24.085 -1.89072 -59.4368 -9.45842 12.5571 -1.57953 0.624528 -3.56089e-006 -5.2274e-007 -7.2269e-006 5.70088e-006 6.33671e-006 8.78217e-006 -6.36111e-015 1.59028e-015 9.54166e-015 -3.56089e-006 -5.2274e-007 -7.2269e-006 0.0129814 0.00233273 -7.71803e-005 -1.03192e-005 -9.51026e-006 -3.14337e-006 -3.56089e-006 -5.2274e-007 -7.2269e-006 0.0162942 0.0030346 -0.00086376 4.77083e-015 7.95139e-016 -9.54166e-015 -3.56089e-006 -5.2274e-007 -7.2269e-006 0.0145609 0.0036795 -0.00325098 -3.23399e-006 -1.88321e-006 -3.4478e-007 -3.56089e-006 -5.2274e-007 -7.2269e-006 5.70088e-006 6.33671e-006 8.78217e-006 -6.36111e-015 1.59028e-015 9.54166e-015 -30.8215 -18.0902 -59.4444 -54.6713 63.0784 97.4781 0.886872 11.3829 -28.6769 -1.63607e-006 -4.55573e-007 7.39258e-006 29.9267 -19.1978 60.605 58.3778 63.828 -102.925 -0.70542 10.7621 31.4465 2.9415e-006 -2.81718e-006 -8.94805e-007 
-40.4918 3.08099 6.62732 -26.865 62.3242 -150.23 -0.695583 2.254 -0.0108208 -1.39235 4.50795 0.00578782 -1.39235 4.50799 0.00578769 1.19234e-005 16.9116 -1.61198e-006 -9.12488e-007 11.5873 2.48144e-006 -10.3392 24.2848 -34.7374 21.5648 52.7326 40.0177 -54.7514 -79.4907 -46.1254 -18.0675 -2.42802 -0.263008 7.95139e-016 0 -1.98785e-016 -5.96354e-016 -1.59028e-015 2.93207e-015 -5.96354e-016 -1.59028e-015 -3.47873e-016 7.95139e-016 0 -1.98785e-016 -0.0128896 0.00234361 8.47403e-005 -7.95139e-016 -1.59028e-015 3.8266e-015 7.95139e-016 0 -1.98785e-016 -0.0161535 0.00302307 0.000866204 -2.78881e-006 -1.51042e-006 -3.75976e-006 7.95139e-016 0 -1.98785e-016 -0.0126132 0.00313035 0.00282965 9.93923e-016 1.59028e-015 -1.59028e-015 7.95139e-016 0 -1.98785e-016 -5.96354e-016 -1.59028e-015 2.93207e-015 -5.96354e-016 -1.59028e-015 -3.47873e-016 9.36552 24.105 29.6665 -27.1002 51.8201 -31.9185 51.9927 -80.1234 42.7004 18.0598 -2.4023 0.61707 1.20071e-007 -2.28063e-006 4.60663e-006 2.25615e-006 -7.85672e-007 -2.90872e-006 1.63966e-021 1.09907e-005 -8.54774e-015 1.20071e-007 -2.28063e-006 4.60663e-006 0.0129525 0.00232706 -8.91355e-005 -1.63824e-006 3.13124e-007 -1.04762e-007 1.20071e-007 -2.28063e-006 4.60663e-006 0.0163318 0.00303384 -0.000877022 1.63821e-006 7.43284e-006 1.04788e-007 1.20071e-007 -2.28063e-006 4.60663e-006 0.0145823 0.0036738 -0.00326111 -3.58563e-006 7.92174e-006 1.29708e-006 1.20071e-007 -2.28063e-006 4.60663e-006 2.25615e-006 -7.85672e-007 -2.90872e-006 1.63966e-021 1.09907e-005 -8.54774e-015 -52.5299 -11.5314 -82.4265 -86.4487 34.5444 132.598 9.48509 13.573 -45.346 8.13386e-007 6.4803e-007 2.48692e-007 51.5229 -11.5515 83.3305 87.4331 33.1473 -136.192 -9.25271 12.1918 49.3327 -2.23766e-006 3.85078e-006 8.63898e-007 
-35.8564 7.40709 5.35858 5.64009e-015 60.9968 180 -0.641945 2.21462 -0.00612892 -1.28509 4.42913 0.0126089 -1.28509 4.42912 0.0126088 -3.80952e-005 14.954 -9.65002e-007 -2.80007e-007 10.1237 -2.92978e-007 -9.97995 22.6392 -33.424 26.8089 50.519 37.6018 -28.1991 -77.2546 -19.9204 -16.5119 -2.53556 -0.00522783 5.56597e-015 1.59028e-015 -1.81888e-014 5.56597e-015 1.59028e-015 -2.41523e-014 6.36111e-015 3.18055e-015 -2.71341e-014 5.56597e-015 1.59028e-015 -1.81888e-014 -0.0127998 0.00232667 8.71269e-005 -1.59028e-015 -3.18055e-015 3.97569e-016 5.56597e-015 1.59028e-015 -1.81888e-014 -0.0159998 0.00299544 0.00086815 6.06912e-032 -1.59028e-015 2.18663e-015 5.56597e-015 1.59028e-015 -1.81888e-014 -0.0126592 0.00313613 0.00284608 1.59028e-015 -9.54166e-015 -2.48481e-015 5.56597e-015 1.59028e-015 -1.81888e-014 5.56597e-015 1.59028e-015 -2.41523e-014 6.36111e-015 3.18055e-015 -2.71341e-014 8.94569 22.4747 28.3498 -31.5718 49.2118 -30.247 25.1582 -77.5351 16.1858 16.4951 -2.5138 0.319478 1.98785e-016 0 3.97569e-016 -1.98785e-016 -1.59028e-015 3.57812e-015 1.98785e-016 -1.59028e-015 3.72721e-015 1.98785e-016 0 3.97569e-016 0.0129473 0.00231142 -8.80656e-005 7.95139e-016 1.59028e-015 -4.07509e-015 1.98785e-016 0 3.97569e-016 0.0163368 0.00303423 -0.000877456 -3.97569e-016 -1.43125e-014 -6.70898e-015 1.98785e-016 0 3.97569e-016 0.0145791 0.00367741 -0.00326928 -3.97569e-016 0 -1.09332e-015 1.98785e-016 0 3.97569e-016 -1.98785e-016 -1.59028e-015 3.57812e-015 1.98785e-016 -1.59028e-015 3.72721e-015 -47.3061 -14.3548 -76.2516 -83.3162 42.1543 128.028 7.89892 13.0178 -40.7424 -2.534e-006 -1.74366e-006 4.30633e-006 46.4018 -14.6645 77.2773 84.8695 41.1497 -131.791 -7.64536 11.8497 44.2284 -7.6827e-007 2.00608e-006 -2.78945e-006 
-35.8563 7.40711 5.35849 5.63991e-015 60.9964 180 -0.638981 2.31704 -0.00845413 -1.27919 4.63398 0.00898771 -1.27919 4.63398 0.00898774 2.51008e-007 14.2563 9.29315e-008 -3.81661e-007 9.53879 -2.29034e-007 -9.71861 22.4689 -33.8367 26.5599 50.5323 37.7724 -28.1972 -77.2539 -19.9186 -16.238 -2.77695 0.233483 1.59028e-015 3.18055e-015 -3.8763e-015 1.16477e-006 1.11632e-007 -1.38212e-006 -7.95139e-016 -3.18055e-015 -5.96354e-016 1.59028e-015 3.18055e-015 -3.8763e-015 -0.0128722 0.0023355 7.95586e-005 1.59028e-015 -3.18055e-015 -5.86415e-015 1.59028e-015 3.18055e-015 -3.8763e-015 -0.0159974 0.00297987 0.00084423 1.16502e-006 4.41781e-007 -1.38207e-006 1.59028e-015 3.18055e-015 -3.8763e-015 -0.0126058 0.00311572 0.00282384 6.62086e-032 4.77083e-015 -7.95139e-016 1.59028e-015 3.18055e-015 -3.8763e-015 1.16477e-006 1.11632e-007 -1.38212e-006 -7.95139e-016 -3.18055e-015 -5.96354e-016 8.62566 22.2932 28.7803 -31.2783 49.2591 -30.4375 25.1598 -77.5359 16.1875 16.214 -2.75301 0.0669315 1.59028e-015 -1.43125e-014 1.39149e-015 1.98785e-015 -1.59028e-014 -4.07509e-015 5.60014e-031 -1.11319e-014 2.88238e-015 1.59028e-015 -1.43125e-014 1.39149e-015 0.0129365 0.00231924 -9.26842e-005 -1.19271e-015 -3.18055e-015 8.94531e-016 1.59028e-015 -1.43125e-014 1.39149e-015 0.016342 0.00302563 -0.000880621 -1.19271e-015 1.59028e-015 3.18055e-015 1.59028e-015 -1.43125e-014 1.39149e-015 0.0145663 0.00366217 -0.00326911 -3.97569e-016 1.59028e-015 -3.57812e-015 1.59028e-015 -1.43125e-014 1.39149e-015 1.98785e-015 -1.59028e-014 -4.07509e-015 5.60014e-031 -1.11319e-014 2.88238e-015 -46.6159 -14.7469 -74.854 -83.3762 42.541 126.884 8.44283 12.6287 -40.3808 1.22787e-006 -1.99224e-008 3.44734e-007 45.7155 -15.0615 75.8368 84.9702 41.5928 -130.53 -8.14567 11.4623 43.7017 1.13334e-006 -5.48753e-007 5.33559e-006 
-35.8563 7.40722 5.35841 5.64009e-015 60.9968 180 -0.635959 2.4195 -0.0107707 -1.27317 4.83896 0.00537321 -1.27317 4.83897 0.00537295 -2.70945e-005 13.5573 -7.66444e-007 -9.62467e-007 8.95319 -5.68171e-007 -9.45896 22.297 -34.2482 26.3098 50.5459 37.9438 -28.1973 -77.254 -19.9187 -15.9629 -3.01719 0.473385 -3.18055e-015 0 -3.27995e-015 -2.38542e-015 1.59028e-015 -4.96962e-016 -2.38542e-015 -3.18055e-015 -8.94531e-016 -3.18055e-015 0 -3.27995e-015 -0.0127967 0.00230838 8.61054e-005 -0 0 7.95139e-016 -3.18055e-015 0 -3.27995e-015 -0.0160335 0.00297721 0.00085098 7.95139e-016 -3.18055e-015 1.98785e-015 -3.18055e-015 0 -3.27995e-015 -0.0125777 0.00312473 0.0028255 3.18055e-015 3.18055e-015 1.88845e-015 -3.18055e-015 0 -3.27995e-015 -2.38542e-015 1.59028e-015 -4.96962e-016 -2.38542e-015 -3.18055e-015 -8.94531e-016 8.30741 22.1096 29.2093 -30.9852 49.3047 -30.6279 25.1592 -77.5356 16.1868 15.9316 -2.99102 -0.186901 3.97569e-016 -1.59028e-015 2.28602e-015 3.97569e-016 -1.59028e-015 -7.95139e-016 3.97569e-016 0 -3.97569e-016 3.97569e-016 -1.59028e-015 2.28602e-015 0.0129425 0.00232062 -9.67253e-005 -3.97569e-016 -3.18055e-015 -4.96962e-016 3.97569e-016 -1.59028e-015 2.28602e-015 0.0163375 0.00304911 -0.000883511 1.59028e-015 0 2.18663e-015 3.97569e-016 -1.59028e-015 2.28602e-015 0.0145961 0.00368373 -0.00327768 -3.97569e-016 -1.59028e-015 -5.06901e-015 3.97569e-016 -1.59028e-015 2.28602e-015 3.97569e-016 -1.59028e-015 -7.95139e-016 3.97569e-016 0 -3.97569e-016 -45.9124 -15.1221 -73.4451 -83.4228 42.9285 125.728 8.991 12.2432 -40.014 -2.08343e-006 -3.16236e-006 1.85154e-006 45.0151 -15.4409 74.3846 85.0546 42.0376 -129.254 -8.65202 11.0795 43.1699 -7.11058e-007 1.48023e-007 -5.22214e-006 
